<?xml version="1.0" standalone="no"?>
<!DOCTYPE svg PUBLIC "-//W3C//DTD SVG 20010904//EN"
 "http://www.w3.org/TR/2001/REC-SVG-20010904/DTD/svg10.dtd">
<svg version="1.0" xmlns="http://www.w3.org/2000/svg"
 width="701.000000pt" height="701.000000pt" viewBox="0 0 701.000000 701.000000"
 preserveAspectRatio="xMidYMid meet">
<metadata>
Created by potrace 1.14, written by Peter Selinger 2001-2017
</metadata>
<g transform="translate(0.000000,701.000000) scale(0.100000,-0.100000)"
fill="#000000" stroke="none">
<path d="M4205 4930 c-85 -9 -184 -40 -231 -72 -39 -25 -87 -101 -124 -192
l-24 -59 25 -19 c13 -10 35 -29 49 -42 28 -27 49 -36 240 -108 122 -47 143
-52 220 -52 144 -2 180 33 246 232 18 55 24 86 17 93 -13 13 -287 32 -378 27
l-70 -5 45 14 c45 15 206 13 356 -3 l60 -6 12 38 c6 22 14 58 18 80 l6 42 -88
15 c-110 20 -286 28 -379 17z"/>
<path d="M4681 4788 c-41 -156 -91 -303 -119 -343 -62 -90 -188 -111 -344 -57
-46 16 -130 46 -188 67 -83 30 -114 36 -155 33 -76 -6 -130 -46 -177 -133 -21
-38 -38 -76 -38 -82 0 -9 17 -13 50 -13 32 0 94 -14 168 -39 160 -53 303 -87
452 -107 186 -24 272 -9 340 58 57 57 124 190 171 338 25 81 26 80 -64 245
-72 132 -71 131 -96 33z"/>
<path d="M3425 4686 c-309 -80 -387 -124 -418 -235 -10 -34 -42 -124 -72 -200
-30 -77 -55 -147 -55 -156 0 -10 -21 -25 -55 -40 -45 -20 -55 -29 -55 -50 0
-29 31 -49 63 -41 21 6 21 6 1 -5 -20 -10 -84 -142 -84 -173 0 -8 -20 -24 -45
-35 -36 -16 -45 -25 -45 -45 0 -14 9 -31 21 -39 14 -11 17 -17 9 -22 -17 -11
-62 -115 -56 -131 3 -7 -6 -15 -22 -19 -41 -10 -92 -45 -92 -63 0 -8 9 -25 20
-37 20 -21 20 -21 -10 -84 -17 -35 -28 -66 -25 -70 2 -5 -18 -18 -45 -31 -28
-13 -57 -32 -66 -41 -15 -17 -15 -20 0 -44 9 -14 20 -25 25 -25 5 0 -1 -21
-14 -47 -26 -54 -24 -68 8 -51 54 29 217 69 305 75 51 3 95 10 98 15 4 5 -6
22 -20 37 -14 15 -26 33 -26 39 0 7 -10 16 -22 21 -17 6 3 10 70 16 65 5 97 4
105 -4 8 -8 -7 -11 -56 -11 -41 0 -67 -4 -67 -11 0 -23 23 -50 63 -73 35 -19
61 -25 152 -30 204 -11 416 -89 600 -221 79 -57 79 -57 95 -36 209 295 625
656 1111 964 109 69 222 174 255 238 22 43 14 95 -30 201 -56 134 -149 308
-166 308 -5 0 -14 -17 -20 -37 -6 -21 -15 -47 -20 -58 -5 -11 -27 -64 -50
-118 -87 -209 -133 -243 -320 -240 -179 3 -380 41 -614 118 -78 25 -127 35
-172 35 -105 0 -197 -47 -242 -122 -9 -16 -24 -28 -34 -28 -15 0 -14 5 8 43
38 61 95 104 158 118 49 11 55 15 60 43 20 100 125 217 208 231 21 4 40 10 43
14 14 24 -112 97 -232 134 -103 33 -165 39 -228 23z m-342 -573 c-13 -2 -35
-2 -50 0 -16 2 -5 4 22 4 28 0 40 -2 28 -4z m145 0 c-10 -2 -28 -2 -40 0 -13
2 -5 4 17 4 22 1 32 -1 23 -4z m-235 -10 c-7 -2 -21 -2 -30 0 -10 3 -4 5 12 5
17 0 24 -2 18 -5z m320 0 c-7 -2 -21 -2 -30 0 -10 3 -4 5 12 5 17 0 24 -2 18
-5z m-246 -79 c-3 -3 -12 -4 -19 -1 -8 3 -5 6 6 6 11 1 17 -2 13 -5z m-77 -14
c-14 -4 -34 -8 -45 -8 -16 0 -15 2 5 8 14 4 34 8 45 8 16 0 15 -2 -5 -8z m313
3 c-7 -2 -19 -2 -25 0 -7 3 -2 5 12 5 14 0 19 -2 13 -5z m62 -9 c9 -4 13 -10
8 -13 -14 -9 -103 -147 -103 -159 0 -6 6 -12 13 -15 6 -2 -1 -2 -18 1 -16 2
-32 6 -34 8 -2 2 20 38 48 81 28 42 49 83 47 90 -6 14 12 17 39 7z m970 -261
c-24 -82 -50 -128 -88 -157 -48 -37 -90 -33 -199 15 -149 65 -199 81 -263 82
-75 1 -153 -32 -221 -95 -43 -40 -46 -41 -31 -13 19 36 95 126 136 161 17 14
56 34 88 46 93 33 161 17 293 -67 63 -40 104 -50 157 -40 47 9 108 72 126 129
9 32 13 36 15 18 2 -12 -4 -48 -13 -79z m-1438 71 c-3 -3 -12 -4 -19 -1 -8 3
-5 6 6 6 11 1 17 -2 13 -5z m-40 -10 c-3 -3 -12 -4 -19 -1 -8 3 -5 6 6 6 11 1
17 -2 13 -5z m480 0 c-3 -3 -12 -4 -19 -1 -8 3 -5 6 6 6 11 1 17 -2 13 -5z
m-143 -76 c-5 -7 -30 -44 -56 -83 -26 -38 -48 -73 -48 -76 0 -4 12 -10 28 -12
15 -2 3 -5 -25 -6 -29 0 -53 3 -53 8 0 5 3 11 8 13 4 2 32 40 62 85 35 52 62
82 73 83 12 0 16 -4 11 -12z m-264 -168 c0 -6 -25 -9 -57 -8 l-58 1 55 7 c30
4 56 7 58 8 1 1 2 -2 2 -8z m318 -61 c-3 -8 -7 -3 -11 10 -4 17 -3 21 5 13 5
-5 8 -16 6 -23z m-330 -36 c-16 -2 -40 -2 -55 0 -16 2 -3 4 27 4 30 0 43 -2
28 -4z m95 -10 c-35 -31 -114 -144 -108 -153 4 -6 -8 -10 -25 -10 l-30 0 39
53 c22 28 50 64 61 79 12 15 19 32 15 38 -4 6 8 10 31 10 35 0 36 0 17 -17z
m110 10 c-13 -2 -35 -2 -50 0 -16 2 -5 4 22 4 28 0 40 -2 28 -4z m-310 -10
c-7 -2 -21 -2 -30 0 -10 3 -4 5 12 5 17 0 24 -2 18 -5z m390 0 c-7 -2 -19 -2
-25 0 -7 3 -2 5 12 5 14 0 19 -2 13 -5z m-576 -189 c-3 -3 -12 -4 -19 -1 -8 3
-5 6 6 6 11 1 17 -2 13 -5z m429 -38 c-3 -14 -11 -26 -17 -26 -8 0 -7 5 1 15
7 8 10 25 7 36 -4 16 -3 19 5 11 6 -6 8 -22 4 -36z m-363 -43 c-7 -2 -19 -2
-25 0 -7 3 -2 5 12 5 14 0 19 -2 13 -5z m-68 -12 c-11 -5 -36 -11 -55 -14 -35
-6 -34 -6 5 8 43 14 84 19 50 6z"/>
<path d="M5100 4010 c0 -34 -46 -115 -84 -148 -20 -17 -108 -80 -197 -139 -89
-59 -174 -117 -190 -128 -287 -206 -471 -357 -625 -510 -146 -146 -223 -244
-279 -355 -77 -153 -128 -215 -260 -314 -80 -61 -228 -142 -330 -181 -164 -64
-194 -75 -275 -98 -378 -112 -726 -169 -884 -147 -70 10 -114 31 -219 106 -27
18 -64 36 -83 40 -47 9 -136 -26 -214 -82 -69 -51 -69 -53 3 -123 134 -130
344 -179 712 -168 291 10 487 43 800 137 33 10 110 33 170 50 114 33 205 59
360 105 50 14 119 35 155 45 36 10 110 32 165 49 55 16 116 34 135 39 58 16
427 124 640 187 69 21 154 46 190 56 36 9 112 32 170 49 58 18 134 41 170 51
36 10 103 29 150 42 423 122 458 133 449 142 -5 4 -153 -23 -349 -65 -80 -17
-188 -40 -240 -50 -52 -11 -160 -33 -240 -50 -80 -17 -199 -42 -265 -55 -144
-29 -317 -65 -480 -100 -66 -14 -174 -36 -240 -50 -66 -13 -131 -27 -144 -31
l-23 -7 26 40 c30 45 25 43 321 119 275 70 424 109 650 169 55 15 125 33 155
40 179 41 277 72 266 82 -1 2 -66 -6 -142 -18 -76 -11 -213 -32 -304 -45 -91
-14 -228 -34 -305 -44 -77 -11 -150 -22 -163 -25 -42 -10 -297 -44 -300 -40
-3 2 42 52 99 111 193 198 397 350 704 521 250 139 361 218 440 313 52 63 60
97 40 185 -37 169 -135 381 -135 295z"/>
<path d="M2705 3040 c-148 -20 -360 -89 -370 -121 -12 -38 -85 -138 -151 -207
l-69 -73 -110 -29 c-272 -72 -446 -177 -526 -317 -25 -43 -33 -71 -37 -126 -3
-39 -1 -68 4 -65 118 57 133 62 200 66 77 4 109 -6 154 -51 14 -13 50 -37 80
-52 47 -24 70 -29 160 -33 58 -2 130 1 160 6 30 5 111 19 178 31 537 94 955
265 1168 477 63 63 124 157 124 190 -1 46 -310 242 -310 197 0 -25 -193 -201
-300 -275 -88 -60 -304 -178 -327 -178 -3 0 51 36 120 79 70 43 173 117 231
165 109 90 239 223 233 241 -5 14 -172 62 -262 74 -86 12 -260 12 -350 1z"/>
</g>
</svg>
